<?xml version="1.0" encoding="utf-8"?>
<!-- Generator: Adobe Illustrator 16.0.4, SVG Export Plug-In . SVG Version: 6.00 Build 0)  -->
<!DOCTYPE svg PUBLIC "-//W3C//DTD SVG 1.1//EN" "http://www.w3.org/Graphics/SVG/1.1/DTD/svg11.dtd">
<svg version="1.1" id="レイヤー_1" xmlns="http://www.w3.org/2000/svg" xmlns:xlink="http://www.w3.org/1999/xlink" x="0px"
	 y="0px" width="1035.368px" height="95.034px" viewBox="0 0 1035.368 95.034" enable-background="new 0 0 1035.368 95.034"
	 xml:space="preserve">
<g>
	<polygon points="776.461,80.699 776.461,2.715 762.169,2.715 762.169,94.989 821.833,94.989 821.833,80.699 	"/>
	<path d="M728.667,48.051c-1.49-1.443-3.185-2.696-5.042-3.73c3.742-4.543,5.842-10.023,5.842-15.58
		c0-7.622-2.676-14.112-7.727-18.756c-5.387-4.975-12.99-7.5-22.613-7.5h-23.26v0.171h-2.166v92.267h6.963v0.066h24.988
		c10.439,0,18.436-2.694,23.775-8.063c4.721-4.729,7.121-11.236,7.121-19.369C736.549,59.675,733.821,52.927,728.667,48.051z
		 M711.656,20.913c1.95,1.798,2.919,4.428,2.919,7.828c0,7.057-4.662,11.357-7.979,11.357h-18.613V17.379h11.145
		C704.815,17.379,709.131,18.583,711.656,20.913z M705.653,80.104h-17.67V55.012h17.67c5.729,0,10.156,1.319,12.775,3.818
		c2.135,2.03,3.217,4.97,3.217,8.727C721.645,73.646,720.406,80.104,705.653,80.104z"/>
	<path d="M911.145,47.957v-4.909c0-13.539-3.4-23.899-10.117-30.763c-6.01-6.124-14.311-9.27-24.642-9.27h-15.382v-0.3h-14.293
		v92.274h2.617l0,0h27.058c10.397,0,18.669-3.006,24.565-8.921c6.774-6.763,10.193-17.171,10.193-30.935V47.957L911.145,47.957z
		 M890.44,75.536c-3.071,3.079-7.668,4.567-14.054,4.567h-15.382V17.907h15.382c6.258,0,10.833,1.572,13.974,4.786
		c3.912,3.995,5.881,10.843,5.881,20.355v10.797l0,0v1.289C896.241,64.815,894.311,71.687,890.44,75.536z"/>
	<path d="M1019.526,87.067c0-4.379,3.523-7.922,7.923-7.922c4.372,0,7.919,3.543,7.919,7.922c0,4.381-3.547,7.922-7.919,7.922
		C1023.049,94.989,1019.526,91.448,1019.526,87.067z"/>
	<path d="M313.74,45.619v14.296h17.089v2.688c0,6.021-1.836,10.454-4.618,13.234c-3.059,3.062-8.393,4.314-14.801,4.314
		c-6.374,0-10.979-1.487-14.042-4.559c-3.862-3.869-5.823-10.728-5.823-20.412V43.104c0-9.512,1.979-16.372,5.879-20.373
		c3.136-3.226,7.722-4.784,13.985-4.784c6.27,0,10.853,1.558,14,4.784c0.405,0.422,0.801,0.865,1.168,1.374l15.023-3.825
		c-1.469-3.032-3.334-5.662-5.556-7.938c-6-6.152-14.279-9.301-24.635-9.301c-10.35,0-18.622,3.149-24.621,9.301
		c-6.717,6.865-10.117,17.218-10.117,30.762v12.077c0,13.762,3.409,24.189,10.163,30.923c5.925,5.928,14.169,8.931,24.575,8.931
		c10.385,0,19.405-2.739,25.33-8.663c6.748-6.776,8.925-17.429,8.925-31.19v-9.562H313.74z"/>
	<path d="M971.327,45.619v14.296h17.086v2.688c0,6.021-1.834,10.454-4.607,13.234c-3.08,3.062-8.401,4.314-14.791,4.314
		c-6.383,0-11.01-1.487-14.061-4.559c-3.869-3.869-5.834-10.728-5.834-20.412V43.104c0-9.512,2-16.372,5.893-20.373
		c3.137-3.226,7.73-4.784,14.002-4.784c6.259,0,10.838,1.558,13.972,4.784c0.415,0.422,0.819,0.865,1.177,1.374l15.035-3.825
		c-1.478-3.032-3.333-5.662-5.561-7.938c-6.01-6.152-14.285-9.301-24.623-9.301c-10.359,0-18.637,3.149-24.635,9.301
		c-6.72,6.865-10.129,17.218-10.129,30.762v12.077c0,13.762,3.428,24.189,10.178,30.923c5.898,5.928,14.172,8.931,24.586,8.931
		c10.393,0,19.398-2.739,25.314-8.663c6.744-6.776,8.932-17.429,8.932-31.19v-9.562H971.327z"/>
	<polygon points="68.978,2.762 0,2.762 0,17.051 27.138,17.051 27.138,95.034 41.407,95.034 41.407,17.051 68.978,17.051 	"/>
	<rect x="564.483" y="2.762" width="14.279" height="92.272"/>
	<path d="M159.644,47.993v-4.889c0-13.544-3.409-23.896-10.117-30.762c-6.012-6.152-14.296-9.27-24.648-9.27
		c-10.336,0-18.641,3.118-24.634,9.27c-6.707,6.865-10.11,17.218-10.11,30.762v12.077c0,13.762,3.43,24.189,10.164,30.923
		c5.914,5.928,14.18,8.931,24.58,8.931c10.386,0,18.666-3.003,24.591-8.931c6.736-6.733,10.175-17.161,10.175-30.923V47.993
		L159.644,47.993z M138.94,75.593c-3.055,3.071-7.67,4.559-14.062,4.559c-6.396,0-10.988-1.487-14.065-4.559
		c-3.862-3.869-5.806-10.728-5.806-20.412V43.104c0-9.512,1.972-16.372,5.89-20.373c3.147-3.226,7.714-4.784,13.981-4.784
		c6.292,0,10.857,1.558,14.003,4.784c3.892,4,5.852,10.86,5.852,20.373V53.87l0,0v1.311
		C144.733,64.865,142.801,71.724,138.94,75.593z"/>
	<polygon points="234.991,2.428 234.991,56.837 186.482,1.236 186.482,94.688 200.763,94.688 200.763,39.423 249.273,95.034 
		249.273,2.428 	"/>
	<polygon points="366.217,95.034 405.618,0 445.024,95.034 	"/>
	<path d="M485.509,54.604l34.907,40.43h20.218l-34.986-40.496h1.896c7.521,0,14.251-2.797,18.927-7.891
		c4.402-4.757,6.832-11.277,6.832-18.313c0-7.103-2.43-13.607-6.832-18.358c-4.676-5.095-11.406-7.906-18.927-7.906h-27.237v0.162
		h-9.099v92.265h14.302V54.604z M485.509,16.955h22.034c8.021,0,10.89,5.879,10.89,11.379c0,5.472-2.868,11.334-10.89,11.334
		h-22.034V16.955z"/>
</g>
</svg>
